# xmcd
#
# Track frame offsets: 
#        150
#        21755
#        42686
#        64379
#        85578
#        102515
#        123383
#        138112
#        161825
#        175608
#        198398
#        225835
#        251133
#        273068
#        291061
#        313191
#
# Disc length: 4447 seconds
#
# Revision: 1
# Processed by: cddbd v1.5.2PL0 Copyright (c) Steve Scherf et al.
# Submitted via: ExactAudioCopyFreeDBPlugin 1.0
#
DISCID=dd115d10
DTITLE=Santana - 2014 - Best Ballads
DYEAR=2014
DGENRE=
TTITLE0=Chill Out [Things Gonna Change]
TTITLE1=Samba Pa Ti
TTITLE2=Flor D'Luna [Moonflower]
TTITLE3=I Love You Much Too Much
TTITLE4=Before We Go
TTITLE5=Revelations
TTITLE6=Black Magic Woman
TTITLE7=One With You
TTITLE8=Guru's Song
TTITLE9=Europa [Earth's Cry Heaven's Smile]
TTITLE10=En Aranjues Con Tu Amor
TTITLE11=Taboo
TTITLE12=Brightest Star
TTITLE13=Love Is You
TTITLE14=Contigo [With You]
TTITLE15=Practice What You Preach
EXTD=
EXTT0=
EXTT1=
EXTT2=
EXTT3=
EXTT4=
EXTT5=
EXTT6=
EXTT7=
EXTT8=
EXTT9=
EXTT10=
EXTT11=
EXTT12=
EXTT13=
EXTT14=
EXTT15=
PLAYORDER=
